HIERARCHY
ROOT Hips
{
	OFFSET -3.958830 18.904000 13.208200
	CHANNELS 6 Xposition Yposition Zposition Zrotation Yrotation Xrotation 
	JOINT LHipJoint
	{
		OFFSET 0.000000 0.000000 0.000000
		CHANNELS 3 Zrotation Yrotation Xrotation
		JOINT LeftUpLeg
		{
			OFFSET 1.800000 -1.400000 0.085000
			CHANNELS 3 Zrotation Yrotation Xrotation
			JOINT LeftLeg
			{
				OFFSET 2.215000 -6.000000 0.000000
				CHANNELS 3 Zrotation Yrotation Xrotation
				JOINT LeftFoot
				{
					OFFSET 2.500000 -6.900000 0.000000
					CHANNELS 3 Zrotation Yrotation Xrotation
					JOINT LeftToeBase
					{
						OFFSET 0.200000 -0.500000 1.950000
						CHANNELS 3 Zrotation Yrotation Xrotation
						End Site
						{
							OFFSET 0.000000 0.000000 0.000000
						}
					}
				}
			}
		}
	}
	JOINT RHipJoint
	{
		OFFSET 0.000000 0.000000 0.000000
		CHANNELS 3 Zrotation Yrotation Xrotation
		JOINT RightUpLeg
		{
			OFFSET -1.800000 -1.400000 0.085000
			CHANNELS 3 Zrotation Yrotation Xrotation
			JOINT RightLeg
			{
				OFFSET -2.215000 -6.000000 0.000000
				CHANNELS 3 Zrotation Yrotation Xrotation
				JOINT RightFoot
				{
					OFFSET -2.500000 -6.900000 0.000000
					CHANNELS 3 Zrotation Yrotation Xrotation
					JOINT RightToeBase
					{
						OFFSET -0.200000 -0.500000 1.950000
						CHANNELS 3 Zrotation Yrotation Xrotation
						End Site
						{
							OFFSET 0.000000 0.000000 0.000000
						}
					}
				}
			}
		}
	}
	JOINT LowerBack
	{
		OFFSET 0.000000 0.000000 0.000000
		CHANNELS 3 Zrotation Yrotation Xrotation
		JOINT Spine
		{
			OFFSET -0.087000 1.940000 -0.288900
			CHANNELS 3 Zrotation Yrotation Xrotation
			JOINT Spine1
			{
				OFFSET 0.000000 1.950000 0.060000
				CHANNELS 3 Zrotation Yrotation Xrotation
				JOINT Neck
				{
					OFFSET 0.000000 0.000000 0.000000
					CHANNELS 3 Zrotation Yrotation Xrotation
					JOINT Neck1
					{
						OFFSET 0.000000 1.600000 0.340000
						CHANNELS 3 Zrotation Yrotation Xrotation
						JOINT Head
						{
							OFFSET 0.000000 1.667000 -0.240000
							CHANNELS 3 Zrotation Yrotation Xrotation
							End Site
							{
								OFFSET 0.000000 0.000000 0.000000
							}
						}
					}
				}
				JOINT LeftShoulder
				{
					OFFSET 0.000000 0.000000 0.000000
					CHANNELS 3 Zrotation Yrotation Xrotation
					JOINT LeftArm
					{
						OFFSET 2.700000 1.550000 -0.730000
						CHANNELS 3 Zrotation Yrotation Xrotation
						JOINT LeftForeArm
						{
							OFFSET 5.450000 0.000000 0.000000
							CHANNELS 3 Zrotation Yrotation Xrotation
							JOINT LeftHand
							{
								OFFSET 3.450000 0.000000 0.000000
								CHANNELS 3 Zrotation Yrotation Xrotation
								JOINT LeftHandIndex1
								{
									OFFSET 0.750000 0.000000 0.000000
									CHANNELS 3 Zrotation Yrotation Xrotation
									End Site
									{
										OFFSET 0.000000 0.000000 0.000000
									}
								}
							}
						}
					}
				}
				JOINT RightShoulder
				{
					OFFSET 0.000000 0.000000 0.000000
					CHANNELS 3 Zrotation Yrotation Xrotation
					JOINT RightArm
					{
						OFFSET -2.700000 1.550000 -0.730000
						CHANNELS 3 Zrotation Yrotation Xrotation
						JOINT RightForeArm
						{
							OFFSET -5.450000 0.000000 0.000000
							CHANNELS 3 Zrotation Yrotation Xrotation
							JOINT RightHand
							{
								OFFSET -3.450000 0.000000 0.000000
								CHANNELS 3 Zrotation Yrotation Xrotation
								JOINT RightHandIndex1
								{
									OFFSET -0.750000 0.000000 0.000000
									CHANNELS 3 Zrotation Yrotation Xrotation
									End Site
									{
										OFFSET 0.000000 0.000000 0.000000
									}
								}
							}
						}
					}
				}
			}
		}
	}
}
MOTION
Frames: 7
Frame Time: 0.016667
0.052990 13.234810 1.381850 -57.703353 17.906908 -68.268225 -15.912191 14.670678 4.261012 4.846099 -3.749873 -23.333450 -14.252876 15.766933 41.300960 0.328820 9.452917 1.302085 0.117500 -0.139280 -0.144660 17.434990 -9.795939 2.293499 -2.635532 7.919009 -13.706647 -24.577937 6.345440 47.946365 -1.097881 -7.229326 1.963889 -0.007500 0.688820 0.125760 -1.314329 -6.374826 -7.888132 3.816309 2.529737 55.824243 0.084239 5.790674 25.646365 10.315750 1.228943 -15.586444 -1.764663 0.336111 47.183118 17.944680 -10.403860 -10.668360 -17.928517 -30.919846 13.402361 -32.285668 -0.834734 -2.653401 15.776630 1.644785 -1.604076 -3.809814 2.770567 0.724620 0.073670 -0.091480 0.232610 -3.629502 36.815068 10.044904 -6.971858 -19.020550 -28.236135 -92.830610 39.055980 -42.166134 2.621787 -1.468088 -0.429710 0.611010 0.305540 0.021850 
0.099370 13.286210 1.322180 -55.644948 14.136351 -69.309465 -15.837686 14.832215 3.583691 5.122924 -1.159217 -21.538156 -9.312858 13.984268 40.489154 0.211436 8.583136 1.611124 0.263250 0.077700 -0.038980 17.510067 -9.683804 2.802428 -2.605937 11.101739 -16.014699 -13.626464 1.594223 55.248037 -1.168774 -7.543756 1.863771 0.089920 0.602050 0.083100 -1.582611 -5.944486 -7.915984 6.276077 2.004951 58.133876 -2.379378 6.252172 26.751244 11.810502 0.574531 -15.434063 -2.890786 1.457106 48.211006 15.703060 -9.127280 -12.087900 -20.685728 -31.310086 13.831501 -30.117089 1.164673 -2.887391 16.496448 1.701930 -1.466128 -3.705186 2.786141 0.693790 0.016750 -0.012110 0.307190 -3.977426 38.391440 8.532745 -11.583585 -16.299403 -29.205620 -88.830196 42.220928 -39.758019 2.842617 -1.502471 -0.371010 0.637100 0.152550 0.051740 
0.156750 13.297800 1.278110 -55.859325 10.511076 -69.869471 -15.654954 14.575368 3.054662 5.015102 -0.090692 -22.419896 -3.722041 11.804500 41.600189 0.142146 7.879185 1.848934 0.438920 0.352180 0.039660 17.717368 -9.534724 3.462307 -3.946505 14.152910 -18.406212 0.610941 -7.020940 59.643943 -1.419942 -8.609542 1.541859 0.221600 0.521890 0.038230 -2.166920 -5.017030 -8.068805 11.151730 -1.447614 59.351260 -6.044886 4.039786 27.944497 13.214788 -0.625793 -15.586370 -4.484269 4.240673 49.208394 14.662080 -7.083750 -11.844820 -22.859746 -31.879770 14.738276 -29.762178 4.327116 -3.281908 17.539771 2.123267 -1.131573 -3.570409 2.875772 0.633970 -0.027250 0.059490 0.413240 -3.994042 38.983875 6.883312 -16.957338 -9.776535 -28.709464 -84.626034 43.662607 -37.549250 2.865152 -1.593344 -0.295980 0.632560 -0.029580 0.105170 
0.158550 13.255610 1.269860 -55.081850 6.119206 -68.454501 -15.436541 13.681100 2.528720 4.654465 0.578637 -26.897350 2.518634 9.705896 44.627362 0.183048 7.497579 2.015585 0.653290 0.704770 0.112440 18.085496 -8.981856 4.593185 -8.361676 19.653149 -24.020255 18.690532 -19.288802 63.411583 -2.197696 -11.411509 0.796020 0.422220 0.461300 -0.117810 -2.980970 -3.554152 -8.433115 16.923519 -5.621797 59.530562 -11.271617 1.755368 28.902630 15.032729 -3.763915 -15.556092 -9.602293 6.930177 46.809845 15.010540 -6.697030 -11.668400 -21.971905 -31.059792 14.740884 -31.594849 4.976560 -3.221562 17.554420 5.367215 -0.203453 -3.367020 2.924654 0.540960 -0.102880 0.097560 0.591300 -7.459087 39.184501 5.162936 -19.517615 -4.376792 -29.464352 -82.616543 42.668921 -36.040316 3.018286 -1.806650 -0.271070 0.677770 -0.316640 0.207920 
0.157280 13.289650 1.285860 -54.569020 5.509993 -68.013914 -15.428728 13.123079 2.326851 2.222635 0.451193 -30.695526 8.123694 7.696286 47.540970 0.233961 7.553898 1.983910 0.784270 0.891740 0.107780 18.192267 -8.342160 5.291672 -15.857464 22.098449 -26.661244 37.865732 -32.286087 61.944857 -2.973206 -13.781093 0.213594 0.533990 0.470550 -0.094100 -3.133387 -3.351280 -8.720258 17.751179 -5.564186 57.923142 -12.405252 1.268180 30.237700 15.988286 -4.990034 -15.218805 -11.066402 9.209626 46.612331 15.266970 -6.324760 -11.179960 -22.097744 -29.841931 14.505738 -30.494680 5.084569 -2.626304 17.111393 5.691911 -0.050248 -3.353533 3.028446 0.469130 -0.090030 0.098490 0.677060 -8.779838 39.053924 3.414224 -20.431099 2.474969 -29.257753 -79.045100 41.840811 -34.600435 2.943042 -1.917875 -0.204110 0.656520 -0.390210 0.269230 
0.127000 13.324010 1.305950 -53.511913 4.731438 -68.596505 -15.373126 12.866448 2.261379 0.237171 0.754472 -33.431170 13.977178 5.458326 50.580775 0.321144 8.066271 1.715380 0.701250 0.748420 0.045210 18.257418 -8.273420 5.458422 -18.725749 21.937859 -23.802057 56.044029 -37.934862 51.683774 -3.069229 -13.463956 0.234133 0.402590 0.480350 0.155490 -3.311428 -2.925788 -8.819892 18.656479 -4.496287 56.732302 -12.795862 2.766452 29.150284 15.816528 -3.351800 -14.974021 -6.844748 9.942214 50.186080 12.833170 -4.243140 -9.776610 -22.110809 -28.890791 14.817792 -29.817296 6.404270 -3.033548 18.598681 1.852502 -0.763963 -3.534506 3.198114 0.457530 0.005580 0.123780 0.575120 -8.576069 37.798220 1.793886 -19.102477 9.528123 -27.719438 -73.418993 42.465468 -32.185090 2.814758 -1.851085 -0.072940 0.500720 -0.192120 0.239040 
0.051580 13.342080 1.331460 -51.247029 5.780345 -68.046721 -15.524698 12.590127 2.618868 -4.251898 -0.374773 -39.147070 22.096889 2.226598 56.081498 0.513040 9.375319 1.240477 0.570870 0.580570 -0.030860 18.162608 -7.882942 5.398757 -23.916766 19.917943 -22.427252 79.566455 -43.721131 39.645356 -2.961858 -12.611884 0.406019 0.333030 0.554540 0.241830 -2.970901 -3.358913 -9.020999 14.409234 -0.975533 56.553308 -10.774747 4.693538 27.596482 15.118433 -2.948386 -14.285310 -5.022129 10.481783 50.426208 11.986050 -2.867880 -9.756460 -20.775697 -27.504864 14.576173 -30.860705 6.014261 -3.011277 19.249631 0.485728 -1.081520 -3.710048 3.157377 0.473150 0.088340 0.075570 0.461570 -8.975895 37.904758 0.712999 -18.881597 14.457574 -26.648482 -70.110771 42.716869 -30.853573 2.667886 -1.700655 -0.099850 0.495930 0.000110 0.198090 
